<?xml version="1.0" encoding="UTF-8" standalone="no"?>
<!-- Generator: Adobe Illustrator 19.0.0, SVG Export Plug-In . SVG Version: 6.00 Build 0)  -->

<svg
   xmlns:dc="http://purl.org/dc/elements/1.1/"
   xmlns:cc="http://creativecommons.org/ns#"
   xmlns:rdf="http://www.w3.org/1999/02/22-rdf-syntax-ns#"
   xmlns:svg="http://www.w3.org/2000/svg"
   xmlns="http://www.w3.org/2000/svg"
   xmlns:xlink="http://www.w3.org/1999/xlink"
   xmlns:sodipodi="http://sodipodi.sourceforge.net/DTD/sodipodi-0.dtd"
   xmlns:inkscape="http://www.inkscape.org/namespaces/inkscape"
   version="1.1"
   id="Layer_1"
   x="0px"
   y="0px"
   viewBox="0 0 280 280"
   xml:space="preserve"
   sodipodi:docname="icon-calculadora.svg"
   inkscape:version="0.92.3 (2405546, 2018-03-11)"
   width="280"
   height="280"><metadata
   id="metadata57"><rdf:RDF><cc:Work
       rdf:about=""><dc:format>image/svg+xml</dc:format><dc:type
         rdf:resource="http://purl.org/dc/dcmitype/StillImage" /><dc:title></dc:title></cc:Work></rdf:RDF></metadata><defs
   id="defs55"><linearGradient
   inkscape:collect="always"
   id="linearGradient3817"><stop
     style="stop-color:#94bbe9;stop-opacity:1"
     offset="0"
     id="stop3813" /><stop
     style="stop-color:#eeaeca;stop-opacity:1"
     offset="1"
     id="stop3815" /></linearGradient>
	
	
<linearGradient
   inkscape:collect="always"
   xlink:href="#linearGradient3817"
   id="linearGradient3819"
   x1="-202.4962"
   y1="304.13458"
   x2="141.13371"
   y2="-57.137066"
   gradientUnits="userSpaceOnUse" /><linearGradient
   inkscape:collect="always"
   xlink:href="#linearGradient3817"
   id="linearGradient4640"
   gradientUnits="userSpaceOnUse"
   x1="-202.4962"
   y1="304.13458"
   x2="141.13371"
   y2="-57.137066" /></defs><sodipodi:namedview
   pagecolor="#ffffff"
   bordercolor="#666666"
   borderopacity="1"
   objecttolerance="10"
   gridtolerance="10"
   guidetolerance="10"
   inkscape:pageopacity="0"
   inkscape:pageshadow="2"
   inkscape:window-width="1920"
   inkscape:window-height="1055"
   id="namedview53"
   showgrid="false"
   inkscape:zoom="0.921875"
   inkscape:cx="112.3975"
   inkscape:cy="132.66577"
   inkscape:window-x="0"
   inkscape:window-y="0"
   inkscape:window-maximized="1"
   inkscape:current-layer="Layer_1" />







<g
   id="g4638"
   transform="matrix(0.75422289,0,0,0.75422289,173.6958,33.25937)"
   inkscape:export-xdpi="96"
   inkscape:export-ydpi="96"><rect
     ry="65.964676"
     y="-44.097534"
     x="-230.2977"
     height="371.24304"
     width="371.24304"
     id="rect59"
     style="fill:url(#linearGradient4640);fill-opacity:1" /><g
     style="opacity:0.95"
     transform="matrix(1.0393375,0,0,1.0393375,1.7570345,-5.5666286)"
     id="g4630"><path
       inkscape:connector-curvature="0"
       style="fill:#ffffff;stroke-width:0.53858286"
       d="m -163.53516,3.6464844 c -10.5029,0 -19.01757,8.5146746 -19.01757,19.0175776 v 95.087888 c 0,10.5029 8.51467,19.01758 19.01757,19.01758 h 95.087894 c 10.502904,0 19.015625,-8.51468 19.015625,-19.01758 V 22.664062 c 0,-10.502903 -8.512721,-19.0175776 -19.015625,-19.0175776 z m 47.54297,28.5273436 c 5.25118,0 9.50977,4.256092 9.50977,9.507813 v 19.017578 h 19.017576 c 5.251183,0 9.507813,4.258043 9.507813,9.509765 0,5.251183 -4.25663,9.507813 -9.507813,9.507813 h -19.017576 v 19.017578 c 0,5.251185 -4.25859,9.507815 -9.50977,9.507815 -5.25118,0 -9.50781,-4.25663 -9.50781,-9.507815 V 79.716797 h -19.01758 c -5.25118,0 -9.50781,-4.25663 -9.50781,-9.507813 0,-5.251722 4.25663,-9.509765 9.50781,-9.509765 H -125.5 V 41.681641 c 0,-5.251721 4.25663,-9.507813 9.50781,-9.507813 z"
       id="path2" /><path
       inkscape:connector-curvature="0"
       style="fill:#ffffff;stroke-width:0.53858286"
       d="m -163.53516,146.2793 c -10.5029,0 -19.01757,8.51467 -19.01757,19.01758 v 95.08789 c 0,10.5029 8.51467,19.01562 19.01757,19.01562 h 95.087894 c 10.502904,0 19.015625,-8.51272 19.015625,-19.01562 v -95.08789 c 0,-10.50291 -8.512721,-19.01758 -19.015625,-19.01758 z m 27.3711,36.88086 c 2.43345,0 4.86785,0.92839 6.72461,2.78515 l 13.44726,13.44727 13.44727,-13.44727 c 3.713525,-3.71352 9.733735,-3.71299 13.447264,0 3.713529,3.71353 3.713529,9.73374 0,13.44727 l -13.447264,13.44726 13.447264,13.44727 c 3.713529,3.71352 3.713529,9.73374 0,13.44727 -3.713529,3.71298 -9.733739,3.71298 -13.447264,0 l -13.44727,-13.44727 -13.44726,13.44727 c -3.71352,3.71298 -9.73374,3.71298 -13.44727,0 -3.71353,-3.71354 -3.71353,-9.73428 0,-13.44727 l 13.44727,-13.44727 -13.44727,-13.44726 c -3.71353,-3.71353 -3.71353,-9.73375 0,-13.44727 1.85677,-1.85676 4.28921,-2.78515 6.72266,-2.78515 z"
       id="path6" /><path
       inkscape:connector-curvature="0"
       style="fill:#ffffff;stroke-width:0.53858286"
       d="m -20.904297,3.6464844 c -10.502904,0 -19.017578,8.5146746 -19.017578,19.0175776 v 95.087888 c 0,10.5029 8.514674,19.01758 19.017578,19.01758 h 95.087891 c 10.502904,0 19.017578,-8.51468 19.017578,-19.01758 V 22.664062 c 0,-10.502903 -8.514674,-19.0175776 -19.017578,-19.0175776 z M -1.8867188,60.699219 H 55.166016 c 5.251722,0 9.507812,4.258043 9.507812,9.509765 0,5.251721 -4.25609,9.507813 -9.507812,9.507813 H -1.8867188 c -5.2517214,0 -9.5097652,-4.256092 -9.5097652,-9.507813 0,-5.251722 4.2580438,-9.509765 9.5097652,-9.509765 z"
       id="path10" /><path
       inkscape:connector-curvature="0"
       style="fill:#ffffff;stroke-width:0.53858286"
       d="m -20.904297,146.2793 c -10.502904,0 -19.017578,8.51467 -19.017578,19.01758 v 95.08789 c 0,10.5029 8.514674,19.01562 19.017578,19.01562 h 95.087891 c 10.502904,0 19.017578,-8.51272 19.017578,-19.01562 v -95.08789 c 0,-10.50291 -8.514674,-19.01758 -19.017578,-19.01758 z m 19.0175782,38.0332 H 55.166016 c 5.251722,0 9.507812,4.25805 9.507812,9.50977 0,5.25172 -4.25609,9.50781 -9.507812,9.50781 H -1.8867188 c -5.2517213,0 -9.5097652,-4.25609 -9.5097652,-9.50781 0,-5.25172 4.2580438,-9.50977 9.5097652,-9.50977 z m 0,38.03516 H 55.166016 c 5.251722,0 9.507812,4.25804 9.507812,9.50976 0,5.25172 -4.25609,9.50781 -9.507812,9.50781 H -1.8867188 c -5.2517213,0 -9.5097652,-4.25609 -9.5097652,-9.50781 0,-5.25172 4.2580438,-9.50976 9.5097652,-9.50976 z"
       id="path14" /></g></g>
<g
   id="g22"
   transform="translate(230.2977,-47.145507)">
</g>
<g
   id="g24"
   transform="translate(230.2977,-47.145507)">
</g>
<g
   id="g26"
   transform="translate(230.2977,-47.145507)">
</g>
<g
   id="g28"
   transform="translate(230.2977,-47.145507)">
</g>
<g
   id="g30"
   transform="translate(230.2977,-47.145507)">
</g>
<g
   id="g32"
   transform="translate(230.2977,-47.145507)">
</g>
<g
   id="g34"
   transform="translate(230.2977,-47.145507)">
</g>
<g
   id="g36"
   transform="translate(230.2977,-47.145507)">
</g>
<g
   id="g38"
   transform="translate(230.2977,-47.145507)">
</g>
<g
   id="g40"
   transform="translate(230.2977,-47.145507)">
</g>
<g
   id="g42"
   transform="translate(230.2977,-47.145507)">
</g>
<g
   id="g44"
   transform="translate(230.2977,-47.145507)">
</g>
<g
   id="g46"
   transform="translate(230.2977,-47.145507)">
</g>
<g
   id="g48"
   transform="translate(230.2977,-47.145507)">
</g>
<g
   id="g50"
   transform="translate(230.2977,-47.145507)">
</g>
</svg>